<?xml version="1.0" encoding="utf-8"?>
<!-- Generator: Adobe Illustrator 21.1.0, SVG Export Plug-In . SVG Version: 6.00 Build 0)  -->
<svg version="1.1" id="Calque_1" xmlns="http://www.w3.org/2000/svg" xmlns:xlink="http://www.w3.org/1999/xlink" x="0px" y="0px"
	 viewBox="0 0 432 432" style="enable-background:new 0 0 432 432;" xml:space="preserve">
<style type="text/css">
	.st0{fill:#1A1A1A;}
	.st1{fill:#F486A1;}
	.st2{fill:#CCCCCC;}
	.st3{fill:#3F3531;}
	.st4{fill:#BC4662;}
	.st5{fill:#6BAE3D;}
	.st6{fill:#F8982A;}
	.st7{fill:#BA61BB;}
	.st8{fill:#16BACB;}
	.st9{fill:#C4DA6D;}
	.st10{fill:#5C62B8;}
	.st11{fill:#8F99F2;}
	.st12{fill:#ED5F7D;}
	.st13{fill:#5A9100;}
	.st14{fill:#E2B8E0;}
	.st15{fill:#F8BE74;}
	.st16{fill:#43934A;}
	.st17{fill:#F55D00;}
	.st18{fill:#456F01;}
	.st19{fill:#333333;}
	.st20{fill:#9BE0ED;}
	.st21{fill:#A67C52;}
	.st22{fill:#42210B;}
	.st23{fill:#999999;}
	.st24{fill:#8F1A53;}
	.st25{fill:#E38BA4;}
	.st26{fill:#4D4D4D;}
	.st27{fill:#DF5376;}
	.st28{fill:#E5445E;}
	.st29{fill:#EDBAC9;}
	.st30{fill:#E7D3D5;}
	.st31{fill:#C1272D;}
	.st32{fill:#BC2A34;}
	.st33{fill:#AB827E;}
	.st34{fill:#75614D;}
	.st35{fill:#4F4A41;}
	.st36{fill:#7E7163;}
</style>
<g>
	<g>
		<path class="st19" d="M205.4,217.7c-0.4,0.1-0.7,0.2-1.1,0.3c-3.1,1-6.3,1.7-9.6,1.6c-0.8,0-1.7-0.2-2.4-0.5
			c-1.7-0.8-2-2.6-0.6-3.9c0.7-0.6,1.5-1.2,2.3-1.5c1.9-0.8,3.9-1.5,5.8-2.2c2.9-1,5.9-1.9,8.8-2.9c4.6-1.6,8.4-4.5,11.5-8.2
			c2-2.4,3.8-4.9,5.7-7.4c-0.4-0.4-0.8-0.3-1.2-0.3c-3.6-0.1-7.1-0.1-10.7-0.6c-6.6-1-13-2.7-18.8-6.3c-2.3-1.4-4.4-2.9-6.2-4.9
			c-0.7-0.8-1.4-1.7-2-2.6c-0.3-0.4-0.5-0.9-0.6-1.4c-0.6-2.1,0.6-3.7,2.8-3.7c0.9,0,1.9,0.2,2.8,0.5c1.3,0.3,2.5,0.8,3.8,1.1
			c-0.4-0.3-0.8-0.5-1.2-0.8c-5.3-3.4-9.7-7.6-12.8-13.2c-1.3-2.3-2.3-4.6-2.6-7.2c-0.1-0.6-0.1-1.3,0-1.9c0.4-2.2,2-3.4,4.2-3.2
			c1.3,0.1,2.4,0.6,3.5,1.2c1.9,1.2,3.8,2.4,5.7,3.6c0.5,0.3,0.9,0.6,1.6,0.8c-0.2-0.4-0.4-0.7-0.6-1.1c-1.2-2.4-2.5-4.7-3.6-7.2
			c-1.4-3.1-2.2-6.4-2-9.8c0.1-1.1,0.3-2.2,0.7-3.3c0.9-2.3,2.7-2.8,4.7-1.3c0.7,0.5,1.3,1.1,1.8,1.8c1.2,1.6,2.3,3.2,3.5,4.9
			c2.3,3.5,4.5,7.1,7,10.5c6,8.3,13.5,14.9,22.9,19.3c2.3,1.1,4.7,2,7.2,2.6c0.4,0.1,0.9,0.2,1.4,0.3c-0.1-0.3-0.2-0.4-0.3-0.5
			c-4.6-4.1-7.6-9.3-10-14.9c-1.9-4.4-3.4-9-3.9-13.8c-0.1-1.4,0-2.9,0.1-4.3c0-0.6,0.3-1.2,0.6-1.7c0.6-1.1,1.8-1.5,2.9-0.8
			c0.7,0.5,1.4,1.1,1.9,1.8c0.8,1.2,1.5,2.4,2.2,3.7c0.9,1.6,1.7,3.3,2.5,4.9c0.1,0.2,0.3,0.5,0.7,0.6c-0.1-0.7-0.2-1.3-0.4-2
			c-0.7-4.1-1.5-8.1-1.3-12.3c0.1-2.7,0.4-5.4,1.2-8.1c0.3-1.1,0.8-2.2,1.3-3.2c0.2-0.5,0.6-1,0.9-1.4c1.4-1.8,3.4-1.7,4.7,0.2
			c1,1.5,1.3,3.2,1.5,4.9c0.1,1.2,0.2,2.4,0.3,3.6c0,0.3,0,0.5,0.3,0.8c0.1-0.2,0.2-0.5,0.2-0.7c0.6-2.7,1.3-5.4,2.4-7.9
			c0.7-1.5,1.5-2.8,2.3-4.2c0.5-0.7,1.1-1.4,1.8-1.9c1.9-1.5,4.2-1,5.5,1c0.8,1.2,1.1,2.6,1.2,4c0,2.2,0.1,4.5-0.1,6.7
			c-0.6,6.1-1.4,12.3-2.2,18.4c-0.7,5.6-0.8,11.2-0.1,16.8c0.2,1.5,0.4,3.1,1,4.7c0.6-0.4,1.2-0.7,1.7-1c1.7-1.3,3.3-2.7,5-4
			c1.3-1,2.6-2.1,4-2.9c1.9-1.1,4-1.7,6.2-1.2c2.7,0.6,4.7,2.1,5.4,4.8c0.6,2.1,1.3,3.9,2.8,5.5c0.3,0.3,0.5,0.7,0.6,1.1
			c0.4,1.2-0.3,2.1-1.5,2c-0.8-0.1-1.7-0.3-2.5-0.5c-2.4-0.6-3.3-0.4-4.6,1.7c-1.2,1.9-2,3.9-2.7,6c-0.6,1.7-1.2,3.5-1.8,5.2
			c-1.2,3.3-3.1,6.2-5.5,8.8c-4.7,5.1-10.2,9.3-16,13c-1.9,1.2-3.7,2.4-5.5,3.6c-3.4,2.2-5.4,5.4-6,9.4c-0.2,1.4-0.5,2.8-1,4.2
			c-0.4,1.2-1,2.3-1.6,3.3c-0.6,1-1.5,1.6-2.7,1.4c-1.2-0.2-1.9-1-2.1-2c-0.3-1.3-0.5-2.6-0.6-3.9c-0.1-0.9,0-1.8,0-2.6
			c0-0.3,0-0.5-0.2-0.8c-0.2,0.4-0.4,0.8-0.6,1.2c-2.7,6.4-6.2,12.2-11.1,17.2c-1.3,1.4-2.7,2.6-4.2,3.8c-1.2,1-2.6,1.8-4.1,2.1
			c-1.7,0.3-2.8-0.5-2.8-2.2c0-1.2,0.4-2.4,0.9-3.5c1.2-2.5,2.7-4.8,4.4-7c0.8-1.1,1.6-2.2,2.5-3.4c-0.6,0-0.9,0.4-1.2,0.6
			c-2.5,1.6-5.1,2.9-8.1,3.3c-0.9,0.1-1.8,0.1-2.6-0.1c-1.3-0.3-1.8-1.4-1.5-2.7c0.3-1,0.9-1.9,1.7-2.6c1.5-1.3,3-2.5,4.6-3.7
			c0.6-0.5,1.3-0.9,1.9-1.4C205.4,217.8,205.4,217.7,205.4,217.7z"/>
		<path class="st19" d="M115.7,288.9c0.5-0.4,0.8-0.6,1.1-0.9c3.5-2.8,7.5-4.5,12.1-4.2c2.8,0.2,5.1,1.3,6.8,3.5
			c1.1,1.5,2.2,3.1,3.3,4.6c0.1,0.2,0.2,0.3,0.3,0.5c0.5,0.9,0.1,1.8-1,2c-0.7,0.1-1.5,0-2.3-0.1c-0.4,0-0.8-0.1-1.2-0.2
			c-0.7-0.2-1.3,0-1.9,0.5c-0.4,0.4-0.9,0.8-1.4,1.2c-1.9,1.8-4.1,3-6.5,3.8c-0.4,0.1-0.7,0.3-1.4,0.5c0.6,0.3,1,0.6,1.4,0.7
			c1.2,0.4,2.4,0.8,3.7,1.1c3.5,1,6.8,2.6,9.8,4.8c0.7,0.5,1.4,1,2,1.5c3.9,2.9,8.1,5.3,12.5,7.3c1.8,0.8,3.5,1.7,5.2,2.7
			c0.9,0.5,1.7,1.2,2.5,1.9c1.3,1.4,0.9,3.2-0.9,3.8c-0.7,0.3-1.6,0.4-2.4,0.4c-3.8,0.3-7.6,0.1-11.4-0.9c0.4,0.2,0.8,0.4,1.2,0.6
			c1.8,0.9,3.5,2,4.8,3.6c0.3,0.4,0.6,0.8,0.7,1.2c0.4,1.2-0.2,2.4-1.5,2.7c-0.6,0.2-1.3,0.2-2,0.2c-4.4-0.2-8.5-1.2-12.3-3.4
			c-1.5-0.9-3.1-1.6-4.8-2.3c0.6,0.6,1.3,1.1,1.8,1.7c0.9,1,1.8,2,2.7,3c0.2,0.2,0.3,0.5,0.4,0.7c0.6,1.5,0.1,2.7-1.5,3
			c-0.8,0.2-1.6,0.2-2.4,0c-4.7-0.7-8.6-2.9-12.1-5.9c-1.5-1.3-3-2.7-4.6-4.2c0.1,0.4,0.2,0.6,0.3,0.9c0.5,1.4,1,2.9,1.4,4.3
			c0.1,0.5,0.2,1,0.1,1.4c-0.1,2-1.7,3.1-3.6,2.5c-0.6-0.2-1.3-0.5-1.8-0.9c-1.2-1-2.5-2.1-3.5-3.3c-2.2-2.5-3.9-5.4-5.3-8.4
			c-0.5-1-1-2-1.5-3.2c-0.4,0.4-0.7,0.6-1,0.9c-2.9,2.7-5.7,5.5-8.6,8.2c-2.6,2.4-5.4,4.6-8.1,6.8c-1.6,1.3-3.4,2.4-5.3,3.3
			c-1.2,0.5-2.4,0.9-3.7,0.8c-2.1-0.1-3.1-1.3-2.8-3.4c0.1-0.6,0.2-1.1,0.4-1.9c-0.5,0.4-0.8,0.6-1.1,0.9c-3.3,2.9-6.9,5.3-10.9,7.2
			c-3.1,1.5-6.4,2.5-9.9,2.5c-0.9,0-1.9-0.1-2.7-0.3c-1.7-0.5-2.2-1.9-1.3-3.4c0.4-0.7,1-1.5,1.7-2c1.5-1.2,2.9-2.5,4.6-3.5
			c3.2-2,6.5-3.8,9.8-5.7c4.3-2.4,8.6-4.9,12.8-7.3c0.2-0.1,0.4-0.3,0.5-0.6c-0.9,0.3-1.8,0.5-2.7,0.8c-2.6,0.7-5.2,1.5-7.9,2.2
			c-1.2,0.3-2.4,0.3-3.6,0.3c-0.8,0-1.7-0.2-2.4-0.5c-1.5-0.6-1.9-2-1.1-3.4c0.4-0.6,0.9-1.2,1.5-1.7c1.3-1.2,2.8-2,4.4-2.7
			c3.4-1.5,6.9-2.7,10.5-3.4c0.5-0.1,0.9-0.2,1.7-0.4c-0.6-0.2-0.9-0.3-1.2-0.4c-1.6-0.4-3.1-1-4.4-2c-0.8-0.7-1.6-1.4-1.4-2.6
			c0.2-1.2,1.1-1.8,2.2-2.1c0.7-0.2,1.5-0.4,2.2-0.5c3.8-0.4,7.5,0,11.3,0.3c1.3,0.1,2.6,0.3,4,0.2c-0.3-0.3-0.6-0.5-0.8-0.8
			c-4.8-4.5-8.4-9.8-10.3-16.1c-0.4-1.2-0.5-2.4-0.7-3.7c-0.1-0.4,0-0.9,0.1-1.3c0.4-1.5,1.7-2.2,3.1-1.6c0.8,0.3,1.5,0.9,2.2,1.4
			c1,0.8,2,1.7,2.9,2.5c0.3,0.3,0.7,0.5,1,0.7c0.1-0.1,0.1-0.1,0.2-0.2c-0.4-0.5-0.8-0.9-1.2-1.4c-3.3-3.8-5.7-8.1-6.8-13.1
			c-0.4-1.6-0.5-3.2-0.2-4.9c0.1-0.4,0.2-0.9,0.4-1.3c0.6-1.3,2-1.7,3.2-0.9c0.5,0.3,1,0.7,1.3,1.2c1,1.2,1.8,2.4,2.8,3.6
			c0.7,1,1.5,1.9,2.2,2.9c0.2,0.3,0.5,0.6,0.8,0.9c0.1-0.1,0.2-0.1,0.3-0.2c-0.3-0.5-0.5-1-0.8-1.4c-1.8-3.2-3.1-6.7-3.8-10.3
			c-0.4-2.1-0.5-4.1-0.1-6.2c0.2-0.8,0.4-1.7,0.8-2.4c0.8-1.4,2.1-1.6,3.2-0.5c0.7,0.7,1.3,1.6,1.7,2.6c0.8,1.8,1.5,3.7,2.2,5.6
			c0.7,1.7,1.4,3.3,2.1,5c0.2,0.4,0.4,0.7,0.8,0.9c-0.1-0.3-0.2-0.7-0.4-1c-1.7-4.2-2.5-8.5-2.5-13c0-2,0.2-3.9,0.9-5.8
			c0.5-1.2,1-2.4,1.8-3.4c1.5-2,3.6-1.7,4.6,0.6c0.4,0.9,0.6,1.8,0.8,2.8c0.2,1.1,0.2,2.2,0.3,3.4c0.2,2.2,0.3,4.3,0.5,6.5
			c0.3,2.3,1.2,4.5,2.3,6.5c1.4,2.3,2.8,4.6,4.3,6.8c1.1,1.7,2.2,3.3,3.2,5.1c2,3.3,3,6.8,3.3,10.6c0.1,0.8,0,1.7-0.1,2.5
			C115.9,287.6,115.8,288.1,115.7,288.9z"/>
		<path class="st19" d="M318.5,294.2c0.1-1.3,0.1-2.4,0.4-3.4c0.4-1.3,0.8-2.7,1.5-3.9c1.1-2.1,3.1-3.1,5.5-2.9
			c2,0.1,4.1,0.4,6.1,0.6c0.8,0.1,1.2,0.8,1,1.6c-0.2,0.8-0.8,1.4-1.5,1.8c-0.8,0.4-1.1,1.1-0.9,2c0.2,1.5,0.4,3,0.6,4.7
			c0.6-0.5,1.1-0.9,1.5-1.3c3.6-3,7.1-6,10.7-8.9c4.8-3.9,10.3-6.4,15.9-8.9c6.5-2.9,13.1-5.5,19.8-7.6c2.1-0.7,4.2-1.2,6.3-1.4
			c1.3-0.1,2.5,0,3.7,0.4c1.9,0.7,2.7,2.3,2,4.1c-0.4,1-1,1.9-1.7,2.8c-1.5,1.9-3.5,3.5-5.5,4.8c-1.7,1.2-3.4,2.2-5.3,3.4
			c0.4-0.1,0.6-0.1,0.9-0.1c1.2-0.3,2.3-0.7,3.5-0.9c0.8-0.2,1.7-0.2,2.5-0.1c1.4,0.1,2.2,1.3,1.8,2.6c-0.2,0.8-0.7,1.6-1.2,2.3
			c-1,1.5-2.5,2.6-4,3.6c-3.2,2.1-6.7,3.6-10.3,4.9c-0.7,0.2-1.3,0.5-2,0.7c0,0.1,0,0.2,0,0.2c0.6,0,1.2-0.1,1.8-0.1
			c1.2-0.1,2.5-0.2,3.7-0.2c1.3,0,2.4,0.4,3,1.6c0.6,1.3,0,2.3-0.8,3.3c-0.9,1.1-2,1.8-3.2,2.5c-2.6,1.4-5.3,2.2-8.2,2.6
			c-2.7,0.4-5.3,0.5-8,0.7c-0.3,0-0.5,0-1,0.1c0.7,0.4,1.2,0.6,1.6,0.8c1.9,1.1,2.1,3.1,0.3,4.4c-0.8,0.6-1.9,1.1-2.9,1.5
			c-3.7,1.2-7.6,1.4-11.5,1.3c-0.6,0-1.3-0.1-2.1-0.1c0.3,0.3,0.5,0.5,0.6,0.7c0.4,0.4,0.8,0.7,1.1,1.1c1,1.5,0.7,3.1-0.9,4
			c-1.1,0.7-2.3,0.8-3.6,0.9c-3.3,0-6.4-0.9-9.2-2.7c-0.4-0.2-0.7-0.5-1.3-0.6c0.2,0.4,0.3,0.8,0.6,1.2c1.2,2.1,2.9,3.8,4.8,5.1
			c1,0.7,2.1,1.2,3.1,1.9c0.6,0.4,1.2,0.7,1.7,1.1c1.1,1,1.3,2.2,0.5,3.5c-1.2,2-4.9,4-8,2c-0.7-0.5-1.3-1-2.1-1.6
			c0.1,0.6,0.2,1.1,0.1,1.6c-0.1,0.8-0.1,1.6-0.4,2.3c-0.9,2-3.2,2.3-4.6,0.5c-0.6-0.8-1-1.8-1.4-2.8c-0.2-0.4-0.3-0.8-0.4-1.4
			c-0.3,0.5-0.4,0.8-0.7,1.1c-0.6,0.8-1.2,1.7-1.9,2.4c-0.5,0.5-1.1,0.8-1.7,1c-1.6,0.5-3.1-0.5-3.3-2.2c-0.1-0.6,0-1.3,0-2
			c-0.5,0.2-0.9,0.4-1.3,0.5c-1.7,0.7-3.4,0.7-5.1-0.2c-1.6-0.8-2-2.2-1-3.7c0.7-0.9,1.6-1.8,2.5-2.5c1.3-1.1,2.6-2,3.9-3
			c1.4-1.2,2.5-2.6,3.2-4.3c0.1-0.2,0.1-0.4,0.2-0.6c0-0.1,0-0.1-0.1-0.3c-0.3,0.2-0.7,0.5-1,0.7c-1.8,1.4-3.7,2.6-5.8,3.3
			c-0.8,0.3-1.7,0.5-2.6,0.6c-1.4,0.1-2.8-0.2-3.5-1.6c-0.7-1.3-0.3-2.6,0.6-3.7c0.5-0.6,1.1-1.2,1.6-1.7c0.3-0.3,0.7-0.7,1.2-1.1
			c-0.5-0.1-0.7-0.1-1-0.1c-6.4,0.4-12.7-0.4-19-1.6c-0.8-0.2-1.6-0.4-2.4-0.7c-2.2-1-2.5-2.9-0.6-4.4c0.9-0.7,1.9-1.1,2.9-1.6
			c0.9-0.4,2-0.6,2.9-1.2c-0.5,0-1.1,0-1.6,0c-5-0.1-9.9-0.9-14.5-2.9c-1.3-0.6-2.5-1.3-3.7-2c-0.6-0.4-1.2-1.1-1.6-1.8
			c-0.8-1.4-0.4-2.7,1.1-3.4c0.7-0.3,1.5-0.4,2.2-0.5c0.5-0.1,1,0,1.5-0.2c-0.2-0.1-0.4-0.2-0.7-0.3c-3.4-1.2-6.7-2.7-9.7-4.8
			c-1.4-1-2.7-2.1-3.8-3.5c-0.8-1-1.4-2-1.7-3.3c-0.6-2.4,0.8-3.9,3.2-3.4c1.4,0.3,2.8,0.9,4.2,1.4c0.6,0.2,1.1,0.5,1.7,0.6
			c-0.2-0.2-0.4-0.3-0.6-0.5c-2.1-1.3-4.1-2.7-5.8-4.4c-1.2-1.2-2.2-2.5-3.2-3.9c-1.1-1.5-1.5-3.2-1.7-5c-0.1-0.7,0-1.5,0.2-2.1
			c0.5-1.8,2-2.7,3.8-2.1c0.8,0.3,1.6,0.7,2.2,1.2c1.7,1.4,3.3,3,5,4.5c1.5,1.3,2.9,2.6,4.5,3.7c4.1,2.9,8.7,4.8,13.4,6.3
			c6.1,2,11.9,4.4,17.6,7.3C308.9,287.2,314.1,289.9,318.5,294.2z"/>
	</g>
	<g>
		<path class="st20" d="M114.5,147.9c-0.5-0.4-1-0.8-1.4-1.2c-7.1-5.5-15.1-8.2-24.1-7.5c-11.4,0.8-21.2,5.5-29.3,13.5
			c-8.7,8.4-14.1,18.7-16.5,30.5c-0.7,3.6-0.8,7.3-0.1,11c0.1,0.6,0.3,1.2,0.5,1.7c0.1,0.4,0.3,0.8-0.2,1c-0.5,0.2-0.7-0.2-0.9-0.6
			c-0.8-1.6-1.3-3.3-1.6-5.2c-0.6-4.2-0.1-8.3,0.8-12.4c3.1-14.6,14-31.3,29.5-39.6c7.6-4,15.6-6.2,24.2-5.9
			c8.8,0.3,16.6,3.4,23.3,9.1c0.3,0.3,0.7,0.6,1,0.9c0.2-0.1,0.3-0.2,0.5-0.3c8.2-7.2,15.8-15.1,22-24.1c3.9-5.7,7.3-11.6,9.5-18.1
			c1.4-4,2.3-8.2,2.4-12.5c0.1-3.9-0.4-7.8-2.1-11.4c-1.8-3.8-4.6-6.3-8.7-7.3c-5.6-1.3-11.4,1.1-14.4,6.1c-0.7,1.1-1.2,2.2-1.9,3.4
			c-0.2,0.3-0.3,0.6-0.4,0.9c-0.5,0.9-1.3,1.3-2.1,0.9c-0.7-0.3-1-1.1-0.7-2.1c0.2-0.8,0.5-1.5,0.8-2.3c2.6-6.2,7-10.2,13.7-11.3
			c3.4-0.6,6.8,0,9.9,1.7c4.1,2.3,7.1,5.7,8.7,10.2c1.5,4.5,1.9,9.1,1.3,13.8c-0.7,5.7-2.6,11.1-5.1,16.3
			c-4.4,9.4-10.5,17.6-17.4,25.2c-3.8,4.2-8.1,8-12.4,11.8c-0.5,0.4-0.9,0.8-1.5,1.3c0.2,0.2,0.3,0.4,0.4,0.5
			c4.4,5.2,7,11.2,8.4,17.8c2.2,10.2,1.2,20.2-2.1,30c-2.8,8.2-6.9,15.6-12.5,22.2c-2.9,3.5-6.4,6.4-10.6,8.4
			c-4.8,2.3-9.7,2.9-14.7,1.2c-4.2-1.4-7.4-4-10.1-7.4c-3.1-3.9-4.9-8.3-6-13.1c-1.6-7.4-1.1-14.6,1.8-21.6c1.4-3.3,3.4-6.3,6.2-8.6
			c3.2-2.6,6.8-4,10.9-4.2c0.6,0,1.1-0.1,1.5-0.7c3.4-5.9,7.9-11,12.8-15.7C110,152,112.2,150,114.5,147.9z M92.7,174.1
			c-0.2,0-0.3,0-0.5,0c-3.1,0.5-5.7,1.7-7.9,4c-2.1,2.1-3.5,4.6-4.4,7.4c-2.9,9.3-1.7,18.1,3.5,26.3c1.5,2.4,3.4,4.3,5.8,5.8
			c1.6,1,3.3,1.6,5.2,1.8c4,0.4,7.5-0.8,10.8-3c2.5-1.7,4.6-3.8,6.4-6.1c5.5-7,9.5-14.8,11.6-23.5c1.8-7.3,2-14.6,0.4-21.9
			c-1.1-5-3-9.6-6.2-13.7c-0.3-0.3-0.6-0.7-0.9-1c-0.3,0.2-0.5,0.4-0.7,0.6c-2.5,2.4-5.1,4.7-7.6,7.2c-3.6,3.6-6.8,7.5-9.5,11.7
			c-0.2,0.4-0.4,0.7-0.7,1.2c0.4,0.1,0.6,0.2,0.8,0.3c1.6,0.7,3.3,1.2,4.9,2c3.5,1.9,6.1,4.6,7.5,8.3c1.7,4.5,1.2,8.7-2.2,12.3
			c-4.3,4.6-11.3,4-14.9-1.2c-2.6-3.8-3.6-8-2.8-12.6C91.7,177.9,92.3,176.1,92.7,174.1z M96.3,174.2c-0.1,0.1-0.2,0.2-0.2,0.3
			c-1.3,2.9-2,6-1.8,9.2c0.2,2.9,1.4,5.5,3.4,7.6c2.1,2.2,5.4,2.4,7.8,0.6c2.7-2,3.5-4.7,2.9-8C107.4,178.8,101.7,174.6,96.3,174.2z
			"/>
		<path class="st20" d="M331.7,171.9c1.1,0.3,2.1,0.5,3.1,0.8c12.3,4,20.8,11.7,24.6,24.3c1.2,3.9,1.5,7.8,0.4,11.7
			c-0.4,1.5-1,3-1.8,4.3c-3.6,6.1-10.3,8.2-16.8,5.5c-2.5-1-4.5-2.7-6.2-4.7c-2.8-3.3-4.5-7.2-5.7-11.3c-2.1-7-2.8-14.1-2.2-21.4
			c0.1-0.8,0.1-1.7,0.2-2.7c-1,0-1.9-0.1-2.8-0.1c-10.6,0.6-19,5.3-25.5,13.6c-4.8,6.1-7.4,13.1-8.3,20.7c-0.7,6.6,0,13,2.4,19.1
			c0.5,1.3,1.2,2.5,1.9,3.7c1.5,2.7,3.9,4.5,6.6,6c0.6,0.3,1.2,0.6,1.7,0.9c0.2,0.2,0.5,0.6,0.5,0.8c-0.1,0.3-0.5,0.6-0.8,0.6
			c-0.6,0-1.2,0-1.8-0.2c-2.8-0.9-5.3-2.4-7.3-4.6c-2-2.3-3.5-4.9-4.6-7.7c-3.9-9.6-4.2-19.4-1.2-29.3c3.5-11.6,10.4-20.5,21.1-26.3
			c4.9-2.7,10.1-4.2,15.7-4.4c1.1,0,2.2,0,3.5,0c0.1-0.4,0.2-0.8,0.3-1.3c2.3-9.1,5.9-17.5,11.8-24.9c2.6-3.2,5.5-6.2,8.8-8.7
			c3-2.3,6.3-4,10.1-4.6c10.2-1.7,18.3,4.8,19.9,13.4c0.7,3.6,0.1,7-2,10.1c-0.2,0.2-0.3,0.5-0.5,0.7c-0.4,0.5-1,0.6-1.5,0.3
			c-0.5-0.2-0.8-0.7-0.7-1.4c0.1-0.7,0.3-1.4,0.6-2.1c1.8-4.3,1-8.2-1.6-11.9c-4-5.6-11.2-7.2-17-4.9c-2.6,1-4.9,2.4-7,4.2
			c-6,5-10.4,11.2-13.6,18.3C333.9,163.1,332.3,168.3,331.7,171.9z M330.7,178.8c-0.1,0.4-0.2,0.6-0.2,0.8c-0.1,0.7-0.1,1.4-0.1,2.2
			c-0.3,6.9,0.6,13.6,3.2,20c1.2,3.1,2.8,5.9,5.2,8.3c1.4,1.3,2.9,2.3,4.8,2.8c2.5,0.6,4.8,0.2,6.7-1.6c1.4-1.3,2.4-2.9,2.7-4.8
			c0.6-2.8,0.3-5.5-0.6-8.2c-2.9-8.9-9-14.8-17.6-18.2C333.5,179.6,332.1,179.3,330.7,178.8z"/>
		<path class="st20" d="M214.9,333.1c-0.5,0.6-0.8,1-1.1,1.4c-2.7,3.5-6.2,5.7-10.5,6.7c-1.2,0.3-2.5,0.1-3.7-0.2
			c-3.2-1-4.9-4-4.1-7.4c1.1-4.8,6.6-9.3,11.6-9.3c2.4,0,4.6,0.8,6.5,2.2c0.3,0.2,0.6,0.4,0.9,0.7c0,0,0.1,0,0.2,0
			c0.1-0.2,0.2-0.3,0.3-0.6c2.8-6.9,3-13.9,0.5-20.9c-1.2-3.4-3.2-6.4-6.1-8.7c-0.3-0.2-0.6-0.5-1.1-0.8c-0.1,0.5-0.3,0.8-0.4,1.2
			c-1.5,5-3.8,9.6-7.2,13.6c-2.9,3.4-6.4,5.9-10.7,7.3c-3.1,1-6.1,1.1-9.2-0.2c-4.8-2.1-7.1-6.5-6-11.6c0.9-3.8,2.8-7,5.7-9.5
			c3.9-3.4,8.3-5.8,13.5-6.8c2.2-0.4,4.4-0.5,6.6-0.2c0.4,0.1,0.9,0.1,1.4,0.2c0.2-1.4,0.2-2.8,0-4.1c-0.6-6.7-3.1-12.7-7.5-17.9
			c-2.1-2.4-4.4-4.4-7.3-5.8c-6.9-3.2-13.4-2.4-19.4,2c-4.1,3-6.4,7.2-7.2,12.2c-0.3,1.9-0.2,3.8,0.6,5.6c0.4,1,0.9,1.9,1.8,2.5
			c0.3,0.2,0.6,0.5,0.3,0.9c-0.2,0.2-0.7,0.3-0.9,0.2c-0.6-0.3-1.2-0.7-1.6-1.2c-1.2-1.4-1.8-3.1-2.1-4.9c-0.4-2.3-0.1-4.5,0.5-6.8
			c2.8-11.3,12.8-16.4,19.9-17.2c7-0.8,13.1,1.4,18.5,5.8c4.2,3.5,7,8,9,13c2.1,5.1,3,10.4,2.6,15.9c-0.1,0.8-0.2,1.6-0.2,2.5
			c0.2,0.2,0.4,0.3,0.7,0.5c5.5,3.6,8.8,8.8,10.1,15.2c1.3,6.3,0.7,12.5-1.7,18.5c-0.3,0.8-0.7,1.5-1,2.3c-0.2,0.4-0.2,0.7,0,1.1
			c1.7,3.1,2.5,6.5,3.2,9.9c1.2,5.5,2.5,11,4.8,16.2c0.7,1.6,1.6,3.1,2.5,4.5c1,1.6,2.3,2.7,4,3.6c0.4,0.2,0.7,0.4,1,0.6
			c0.4,0.3,0.6,0.7,0.4,1.2c-0.2,0.5-0.6,0.7-1,0.7c-0.5,0-1.1-0.2-1.6-0.4c-1.8-0.7-3.3-1.9-4.6-3.4c-1.9-2.2-3.3-4.6-4.4-7.2
			c-1.9-4.6-3.1-9.5-4.1-14.4c-0.5-2.5-1.1-4.9-1.7-7.4C215.3,334,215.1,333.7,214.9,333.1z M201.7,293.2c-1.7-0.5-3.3-0.6-4.8-0.5
			c-5.9,0.4-10.8,3-14.9,7.2c-2.2,2.3-3.5,5.1-3.8,8.3c-0.2,2.5,0.9,4.6,3.2,5.7c2,1,4,0.8,6.1,0.1c2.3-0.9,4.3-2.3,6.1-4
			c3.4-3.3,5.5-7.4,6.9-11.8C200.9,296.5,201.3,294.9,201.7,293.2z M213.1,330.1c-0.9-1.4-1.4-1.8-3.1-2.5c-5.4-2.6-11.3,2.2-12.1,7
			c-0.3,2.1,1,3.7,3.1,3.9c1.3,0.2,2.5-0.1,3.6-0.6C208.4,336.3,211,333.5,213.1,330.1z"/>
	</g>
</g>
</svg>
